
<svg  xmlns="http://www.w3.org/2000/svg"
 width="11160" height="11114" viewBox="0 0 1160 114" fill="none"
 >


<path d="M2620 5179 c-162 -83 -301 -157 -309 -165 -12 -11 12 -40 160 -191
186 -190 331 -358 465 -538 45 -62 147 -190 227 -286 219 -264 264 -343 217
-381 -63 -51 -164 1 -410 208 -206 174 -290 234 -329 234 -31 0 -86 -32 -100
-58 -5 -10 -33 -80 -61 -155 -28 -76 -105 -258 -171 -405 -67 -147 -162 -368
-211 -492 -103 -257 -199 -454 -227 -470 -44 -23 -108 -2 -118 39 -4 15 3 59
15 106 13 44 43 156 68 250 25 93 74 246 110 339 83 217 110 316 85 316 -5 0
-23 -19 -39 -42 -16 -24 -54 -78 -85 -121 -31 -43 -75 -112 -98 -155 -93 -170
-316 -538 -345 -569 -22 -23 -40 -33 -61 -33 -35 0 -73 36 -73 68 0 33 141
401 220 577 38 82 78 174 89 203 44 112 12 103 -46 -12 -19 -38 -47 -88 -61
-110 -14 -23 -61 -101 -104 -175 -100 -171 -171 -267 -203 -275 -14 -4 -41 0
-60 8 -27 12 -35 21 -35 40 0 34 40 142 120 326 128 290 195 473 183 495 -5 8
-13 11 -19 7 -22 -15 -97 -125 -204 -302 -114 -190 -161 -250 -191 -250 -28 0
-68 21 -74 40 -15 46 47 210 229 613 106 233 166 378 225 545 51 143 58 172
42 172 -15 0 -886 -442 -893 -454 -4 -6 -7 -787 -5 -1735 2 -1369 5 -1725 14
-1729 10 -3 13 346 13 1721 0 1629 1 1725 18 1739 16 15 758 389 808 408 22 9
22 7 -10 -88 -31 -91 -129 -323 -281 -667 -212 -480 -227 -553 -118 -584 68
-20 99 13 248 259 109 181 155 249 155 231 0 -19 -94 -256 -155 -391 -54 -120
-135 -337 -135 -362 0 -29 48 -61 98 -66 46 -4 51 -2 85 34 20 22 83 116 139
211 56 95 103 171 105 170 1 -1 -32 -86 -73 -187 -132 -325 -156 -396 -149
-430 14 -62 94 -90 156 -53 25 15 186 274 397 639 46 79 132 197 139 190 2 -2
-21 -71 -52 -153 -88 -228 -108 -291 -170 -527 -44 -167 -56 -224 -49 -244 23
-64 121 -87 170 -41 38 35 102 168 244 509 70 168 179 422 242 565 64 143 128
298 143 345 34 101 66 140 118 140 43 0 98 -39 292 -209 228 -200 341 -264
424 -241 51 13 75 47 66 89 -10 49 -96 171 -236 340 -72 86 -185 228 -252 316
-181 237 -212 272 -413 482 -101 105 -184 194 -184 197 0 3 135 74 301 156
l300 151 442 -227 c243 -125 692 -355 997 -511 305 -157 630 -324 722 -372
l168 -86 0 -145 c0 -80 -7 -518 -15 -975 -8 -456 -17 -1032 -21 -1278 -6 -372
-10 -450 -21 -454 -19 -7 -1152 13 -1160 20 -7 7 95 201 219 417 52 91 110
193 127 228 17 35 114 208 215 385 219 385 226 398 226 435 0 46 -34 82 -79
82 -46 0 -58 -9 -215 -153 -70 -65 -130 -116 -133 -114 -6 7 32 81 137 267
114 203 180 335 180 361 0 11 -13 34 -29 50 -23 23 -38 29 -71 29 -50 0 -44 6
-264 -248 -87 -100 -160 -181 -162 -180 -5 5 188 481 239 590 64 138 72 163
57 198 -22 54 -102 86 -149 61 -30 -16 -113 -148 -201 -316 -93 -179 -237
-432 -250 -440 -5 -3 -3 13 6 37 88 250 214 684 214 741 0 46 -42 77 -104 77
-65 0 -90 -17 -112 -77 -19 -53 -45 -123 -254 -668 -271 -707 -276 -717 -332
-746 -57 -29 -168 -36 -239 -16 -30 9 -185 80 -344 158 -160 78 -307 144 -327
146 -33 5 -42 1 -73 -30 -61 -61 -54 -80 83 -221 225 -232 368 -409 479 -594
77 -128 87 -158 81 -241 -6 -80 -95 -447 -113 -465 -11 -10 -212 -14 -1001
-20 -543 -3 -990 -9 -992 -11 -3 -3 -3 -8 1 -11 7 -8 641 -6 1431 3 l578 6 13
31 c7 17 35 117 61 221 63 253 65 311 10 416 -98 190 -254 392 -494 641 -84
86 -152 162 -152 168 0 20 29 68 45 74 39 14 80 -1 333 -125 343 -168 377
-181 472 -182 97 0 156 17 195 56 21 21 55 87 99 192 69 161 259 658 321 835
45 132 153 400 166 416 14 17 71 28 98 19 12 -3 28 -17 37 -30 14 -22 13 -34
-20 -157 -19 -73 -70 -245 -114 -383 -121 -384 -121 -385 -103 -385 15 0 281
458 363 625 51 106 112 199 141 220 48 33 127 0 127 -52 0 -15 -34 -103 -76
-197 -42 -94 -111 -259 -154 -366 -43 -107 -88 -215 -99 -240 -23 -49 -26 -73
-11 -68 5 1 106 113 223 248 117 135 225 251 240 258 37 18 79 4 92 -32 11
-32 -10 -78 -179 -386 -62 -113 -127 -232 -144 -264 -31 -57 -39 -86 -26 -86
6 0 85 69 271 237 119 107 145 119 180 78 17 -20 23 -35 18 -52 -3 -13 -103
-197 -223 -408 -364 -645 -595 -1065 -590 -1070 9 -9 1232 -25 1241 -16 9 9
15 248 36 1621 6 360 14 793 17 961 l7 306 -484 248 c-1019 522 -1579 810
-1717 881 -79 41 -153 74 -165 74 -12 0 -155 -68 -317 -151z"/>
<path d="M908 1689 c-36 -20 -17 -92 27 -103 42 -11 61 -100 31 -141 -14 -19
-15 -19 -33 -2 -25 22 -33 22 -33 -2 0 -47 75 -55 97 -11 15 30 17 99 3 135
-5 14 -26 35 -45 47 -48 28 -44 54 8 50 41 -3 46 4 20 24 -21 16 -51 17 -75 3z"/>
<path d="M1077 1693 c-10 -10 -8 -281 2 -287 16 -10 21 24 21 147 0 114 -7
156 -23 140z"/>
<path d="M1578 1684 c-2 -9 -1 -75 2 -148 l5 -131 33 0 c35 0 45 18 12 23 -22
4 -22 5 -20 124 1 83 -8 148 -20 148 -5 0 -10 -7 -12 -16z"/>
<path d="M1157 1673 c-9 -31 7 -258 18 -258 6 0 12 29 14 65 l4 65 17 -55 c10
-32 23 -55 31 -55 9 0 18 21 26 55 15 74 16 74 22 1 4 -42 11 -66 20 -69 19
-6 12 242 -8 260 -19 19 -39 -14 -47 -78 -8 -69 -20 -76 -34 -22 -19 74 -22
83 -32 96 -14 17 -26 15 -31 -5z"/>
<path d="M1486 1675 c-3 -9 -6 -63 -6 -120 0 -106 -9 -132 -43 -120 -20 8 -27
49 -27 156 0 49 -4 89 -9 89 -16 0 -21 -30 -21 -126 0 -90 9 -130 34 -146 21
-15 63 -8 82 13 17 19 19 36 18 136 -2 108 -13 156 -28 118z"/>
<path d="M1067 1364 c-4 -4 -7 -70 -7 -146 0 -107 3 -139 13 -136 8 3 13 42
15 138 2 123 -3 161 -21 144z"/>
<path d="M1232 1350 c-5 -14 -15 -59 -22 -100 -14 -83 -23 -77 -35 26 -7 63
-19 94 -31 81 -13 -13 22 -257 39 -274 13 -14 16 -13 26 5 17 32 50 255 41
272 -7 12 -10 10 -18 -10z"/>
<path d="M1314 1357 c-2 -7 -3 -74 -2 -148 l3 -134 38 0 c41 0 51 17 15 25
-21 5 -23 12 -26 83 -2 63 0 78 13 82 50 16 51 17 17 32 -37 15 -38 35 -2 43
13 3 25 11 28 18 5 17 -77 16 -84 -1z"/>
<path d="M1676 1328 c-3 -24 -2 -90 2 -148 l7 -105 29 -3 c41 -5 57 14 22 28
-26 10 -27 11 -24 87 3 72 5 78 26 81 30 4 28 20 -3 28 -35 9 -34 42 3 46 42
5 32 23 -15 26 l-42 3 -5 -43z"/>
<path d="M894 1303 c17 -152 29 -215 43 -220 8 -3 18 -2 23 3 12 12 52 253 44
265 -12 19 -23 -4 -35 -74 -18 -105 -24 -108 -38 -21 -15 90 -19 104 -33 104
-7 0 -8 -21 -4 -57z"/>
<path d="M1474 1347 c-10 -28 1 -260 13 -264 9 -3 13 19 15 76 2 45 7 82 13
84 5 1 23 -36 40 -82 17 -47 37 -87 43 -89 18 -6 14 24 -13 101 l-26 71 26 23
c29 28 31 40 9 71 -12 18 -25 22 -65 22 -32 0 -51 -5 -55 -13z m96 -37 c0 -15
-7 -20 -29 -20 -31 0 -47 13 -36 30 3 6 19 10 36 10 22 0 29 -5 29 -20z"/>
<path d="M2692 933 c-16 -30 -22 -105 -9 -100 7 2 11 17 9 35 -5 42 5 70 26
75 16 4 16 5 0 6 -10 0 -21 -7 -26 -16z"/>
<path d="M1887 914 c14 -6 6 -65 -11 -76 -7 -5 -5 -8 5 -8 11 0 19 12 23 31 9
49 7 59 -11 58 -10 0 -13 -3 -6 -5z"/>
<path d="M2385 909 c-4 -6 2 -21 14 -33 28 -30 26 -40 -6 -31 -21 5 -25 4 -17
-5 16 -16 48 -9 52 12 2 9 -6 25 -17 34 -11 10 -18 21 -15 26 3 4 3 8 0 8 -3
0 -8 -5 -11 -11z"/>
<path d="M1861 894 c0 -11 3 -14 6 -6 3 7 2 16 -1 19 -3 4 -6 -2 -5 -13z"/>
<path d="M1926 890 c-1 -3 0 -18 4 -35 l6 -30 7 28 c4 15 12 27 18 27 7 0 9
-10 4 -27 -4 -19 -3 -25 3 -18 10 10 15 31 13 50 -1 10 -51 14 -55 5z"/>
<path d="M2000 867 c0 -20 3 -37 8 -37 9 0 8 57 -1 67 -4 3 -7 -10 -7 -30z"/>
<path d="M2065 890 c-3 -5 -12 -7 -20 -4 -9 4 -12 0 -8 -14 2 -11 0 -36 -5
-56 -6 -21 -7 -34 -1 -31 5 4 9 12 9 19 0 8 11 21 25 30 16 10 25 26 25 41 0
25 -14 33 -25 15z m10 -29 c-7 -23 -25 -29 -25 -8 0 14 21 39 28 33 2 -3 1
-14 -3 -25z"/>
<path d="M2107 892 c-2 -4 -1 -20 2 -36 l6 -28 11 30 c9 25 9 32 -2 36 -7 3
-15 2 -17 -2z"/>
<path d="M2191 888 c-1 -10 -6 -18 -12 -18 -5 0 -7 5 -3 12 4 7 3 8 -4 4 -17
-10 -15 -56 2 -56 8 0 18 4 21 10 3 6 -1 7 -9 4 -21 -8 -20 6 0 21 9 6 14 18
11 26 -4 10 -6 9 -6 -3z"/>
<path d="M2224 885 c-6 -15 14 -50 24 -40 3 2 -1 12 -8 21 -12 13 -11 17 1 25
10 6 11 9 1 9 -7 0 -15 -7 -18 -15z"/>
<path d="M2297 882 c2 -10 -3 -25 -13 -33 -15 -13 -16 -12 -9 10 5 16 4 21 -4
17 -13 -8 -15 -46 -3 -46 4 0 13 5 20 12 9 9 12 9 12 0 0 -29 15 -8 17 23 1
23 -3 35 -12 35 -8 0 -11 -7 -8 -18z"/>
<path d="M2478 874 c4 -22 6 -24 14 -10 9 16 3 36 -11 36 -5 0 -6 -12 -3 -26z"/>
<path d="M2515 880 c-9 -10 -15 -26 -12 -35 10 -23 26 -18 20 6 -4 15 0 27 12
35 11 8 14 14 8 14 -5 0 -18 -9 -28 -20z"/>
<path d="M2569 895 c-3 -5 -3 -23 0 -40 4 -16 9 -25 12 -20 3 6 3 24 0 40 -4
17 -9 26 -12 20z"/>
<path d="M2637 882 c2 -10 -3 -25 -13 -33 -16 -13 -17 -12 -12 13 3 15 1 25
-3 22 -11 -7 -12 -54 -1 -54 4 0 13 5 20 12 9 9 12 9 12 -1 0 -7 4 -10 8 -7
11 6 3 66 -8 66 -5 0 -6 -8 -3 -18z"/>
<path d="M2722 888 c-17 -17 -15 -58 2 -58 8 0 18 4 21 10 3 6 -1 7 -9 4 -9
-3 -16 -2 -16 4 0 5 7 12 15 16 8 3 15 12 15 21 0 18 -12 19 -28 3z m18 -8 c0
-5 -5 -10 -11 -10 -5 0 -7 5 -4 10 3 6 8 10 11 10 2 0 4 -4 4 -10z"/>
<path d="M2447 866 c-4 -11 -3 -24 3 -30 14 -14 18 -5 10 24 -5 23 -7 23 -13
6z"/>
</g>
</svg>
